#N canvas 709 285 450 300 10;
#X obj 105 42 inlet;
#X obj 105 297 outlet~;
#N canvas 0 0 450 300 (subpatch) 0;
#X array \$0-array 61538 float 2 black black;
#X coords 0 1 61537 -1 200 140 1;
#X restore 327 170 graph;
#X obj 232 44 loadbang;
#X obj 232 160 soundfiler;
#X obj 105 122 tabplay~ \$0-array;
#X msg 232 136 read -resize \$2 \$1-array;
#X obj 232 110 pack \$0 s;
#X obj 232 65 symbol \$1;
#X obj 232 87 t b s;
#X connect 0 0 5 0;
#X connect 3 0 8 0;
#X connect 5 0 1 0;
#X connect 6 0 4 0;
#X connect 7 0 6 0;
#X connect 8 0 9 0;
#X connect 9 0 7 0;
#X connect 9 1 7 1;
