#N canvas 503 331 357 147 10;
#X text 14 32 LICENSE GPL v3;
#X text 13 93 VERSION 0.1;
#X text 13 74 AUTHOR Rafael Vega <rvega@elsoftwarehamuerto.org>;
#X text 13 10 KEYWORDS control beaglebone black;
#X text 11 53 AUTHOR Miguel Vargas <miguelito.vargasf@gmail.com>;
