#N canvas 926 36 976 874 10;
#X declare -lib ../libs/beaglebone-pruio/puredata-external/beaglebone
;
#X msg 183 215 tempo \$1;
#X obj 60 340 sequencer;
#X obj 60 375 route 0 1 2 3;
#X obj 213 570 dac~;
#X obj 213 500 +~;
#X obj 213 535 *~ 0.25;
#X obj 5 438 sample waves/0.wav;
#X obj 147 439 sample waves/1.wav;
#X obj 287 438 sample waves/2.wav;
#X obj 425 437 sample waves/3.wav;
#X obj 45 14 declare -lib ../libs/beaglebone-pruio/puredata-external/beaglebone
;
#X obj 15 110 adc_input 0 ranges 4;
#X text 18 82 Instrumento;
#X text 182 66 Tempo;
#X msg 14 152 switch-instrument \$1;
#X obj 193 123 loadbang;
#X msg 195 151 load 0 255;
#X obj 183 190 autoscale 1000 100;
#X obj 428 100 select 0;
#X msg 428 125 button 0;
#X obj 535 100 select 0;
#X msg 535 125 button 1;
#X obj 182 93 adc_input 1 bits 8;
#X obj 428 75 gpio_input P8_07;
#X obj 535 75 gpio_input P8_09;
#X obj 751 100 select 0;
#X obj 429 247 select 0;
#X obj 536 247 select 0;
#X obj 644 247 select 0;
#X obj 752 247 select 0;
#X obj 871 99 select 0;
#X obj 978 99 select 0;
#X obj 1086 99 select 0;
#X obj 1194 99 select 0;
#X obj 872 246 select 0;
#X obj 979 246 select 0;
#X obj 1087 246 select 0;
#X obj 1195 246 select 0;
#X obj 805 166 send buttons;
#X obj 820 312 send buttons;
#X obj 117 299 receive buttons;
#X obj 643 100 select 0;
#X msg 643 125 button 2;
#X msg 751 125 button 3;
#X msg 871 124 button 4;
#X msg 978 124 button 5;
#X msg 1086 124 button 6;
#X msg 1194 124 button 7;
#X msg 429 272 button 8;
#X msg 536 272 button 9;
#X msg 644 272 button 10;
#X msg 872 271 button 12;
#X msg 752 272 button 11;
#X msg 979 271 button 13;
#X msg 1087 271 button 14;
#X msg 1195 271 button 15;
#X obj 643 75 gpio_input P8_11;
#X obj 751 75 gpio_input P8_13;
#X obj 871 74 gpio_input P8_15;
#X obj 978 74 gpio_input P8_17;
#X obj 1086 74 gpio_input P8_19;
#X obj 1194 74 gpio_input P8_27;
#X obj 429 222 gpio_input P8_29;
#X obj 536 222 gpio_input P8_31;
#X obj 644 222 gpio_input P8_33;
#X obj 752 222 gpio_input P8_35;
#X obj 872 221 gpio_input P8_37;
#X obj 979 221 gpio_input P8_39;
#X obj 1087 221 gpio_input P8_41;
#X obj 1195 221 gpio_input P8_43;
#X text 849 412 Leds onset;
#X text 1218 414 Leds tiempo;
#X text 247 889 x;
#X obj 581 411 route 0 1 2 3 4 5 6 7 8 9 10 11 12 13 14 15;
#X obj 951 414 route 100 101 102 103 104 105 106 107 108 109 110 111
112 113 114 115;
#X text 1306 421 Leds tiempo;
#X obj 583 814 gpio_output P8_08;
#X obj 599 791 gpio_output P8_10;
#X obj 615 766 gpio_output P8_12;
#X obj 631 743 gpio_output P8_14;
#X obj 644 718 gpio_output P8_16;
#X obj 660 695 gpio_output P8_18;
#X obj 676 670 gpio_output P8_26;
#X obj 692 647 gpio_output P8_28;
#X obj 710 621 gpio_output P8_30;
#X obj 726 598 gpio_output P8_32;
#X obj 742 573 gpio_output P8_34;
#X obj 758 550 gpio_output P8_36;
#X obj 773 525 gpio_output P8_38;
#X obj 789 502 gpio_output P8_40;
#X obj 805 477 gpio_output P8_42;
#X obj 821 454 gpio_output P8_44;
#X obj 953 817 gpio_output P9_11;
#X obj 969 794 gpio_output P9_13;
#X obj 985 769 gpio_output P9_15;
#X obj 1014 746 gpio_output P9_17;
#X obj 1035 721 gpio_output P9_21;
#X obj 1057 698 gpio_output P9_23;
#X obj 1079 673 gpio_output P9_27;
#X obj 1122 624 gpio_output P9_12;
#X obj 1143 601 gpio_output P9_14;
#X obj 1168 576 gpio_output P9_16;
#X obj 1186 553 gpio_output P9_18;
#X obj 1206 528 gpio_output P9_22;
#X obj 1227 505 gpio_output P9_24;
#X obj 1249 480 gpio_output P9_26;
#X obj 1268 457 gpio_output P9_30;
#X obj 1100 650 gpio_output P9_41A;
#X connect 0 0 1 0;
#X connect 1 0 2 0;
#X connect 1 1 73 0;
#X connect 1 1 74 0;
#X connect 2 0 6 0;
#X connect 2 1 7 0;
#X connect 2 2 8 0;
#X connect 2 3 9 0;
#X connect 4 0 5 0;
#X connect 5 0 3 0;
#X connect 5 0 3 1;
#X connect 6 0 4 0;
#X connect 7 0 4 0;
#X connect 8 0 4 0;
#X connect 9 0 4 0;
#X connect 11 0 14 0;
#X connect 14 0 1 0;
#X connect 15 0 16 0;
#X connect 16 0 17 0;
#X connect 17 0 0 0;
#X connect 18 0 19 0;
#X connect 19 0 38 0;
#X connect 20 0 21 0;
#X connect 21 0 38 0;
#X connect 22 0 17 0;
#X connect 23 0 18 0;
#X connect 24 0 20 0;
#X connect 25 0 43 0;
#X connect 26 0 48 0;
#X connect 27 0 49 0;
#X connect 28 0 50 0;
#X connect 29 0 52 0;
#X connect 30 0 44 0;
#X connect 31 0 45 0;
#X connect 32 0 46 0;
#X connect 33 0 47 0;
#X connect 34 0 51 0;
#X connect 35 0 53 0;
#X connect 36 0 54 0;
#X connect 37 0 55 0;
#X connect 40 0 1 0;
#X connect 41 0 42 0;
#X connect 42 0 38 0;
#X connect 43 0 38 0;
#X connect 44 0 38 0;
#X connect 45 0 38 0;
#X connect 46 0 38 0;
#X connect 47 0 38 0;
#X connect 48 0 39 0;
#X connect 49 0 39 0;
#X connect 50 0 39 0;
#X connect 51 0 39 0;
#X connect 52 0 39 0;
#X connect 53 0 39 0;
#X connect 54 0 39 0;
#X connect 55 0 39 0;
#X connect 56 0 41 0;
#X connect 57 0 25 0;
#X connect 58 0 30 0;
#X connect 59 0 31 0;
#X connect 60 0 32 0;
#X connect 61 0 33 0;
#X connect 62 0 26 0;
#X connect 63 0 27 0;
#X connect 64 0 28 0;
#X connect 65 0 29 0;
#X connect 66 0 34 0;
#X connect 67 0 35 0;
#X connect 68 0 36 0;
#X connect 69 0 37 0;
#X connect 73 0 76 0;
#X connect 73 1 77 0;
#X connect 73 2 78 0;
#X connect 73 3 79 0;
#X connect 73 4 80 0;
#X connect 73 5 81 0;
#X connect 73 6 82 0;
#X connect 73 7 83 0;
#X connect 73 8 84 0;
#X connect 73 9 85 0;
#X connect 73 10 86 0;
#X connect 73 11 87 0;
#X connect 73 12 88 0;
#X connect 73 13 89 0;
#X connect 73 14 90 0;
#X connect 73 15 91 0;
#X connect 74 0 92 0;
#X connect 74 1 93 0;
#X connect 74 2 94 0;
#X connect 74 3 95 0;
#X connect 74 4 96 0;
#X connect 74 5 97 0;
#X connect 74 6 98 0;
#X connect 74 7 107 0;
#X connect 74 8 99 0;
#X connect 74 9 100 0;
#X connect 74 10 101 0;
#X connect 74 11 102 0;
#X connect 74 12 103 0;
#X connect 74 13 104 0;
#X connect 74 14 105 0;
#X connect 74 15 106 0;
